<?xml version="1.0" encoding="UTF-8"?>
<svg xmlns="http://www.w3.org/2000/svg" xmlns:xlink="http://www.w3.org/1999/xlink" width="3873" height="3873" viewBox="0 0 3873 3873">
<defs>
<clipPath id="clip-0">
<path clip-rule="evenodd" d="M 1936.5 0 C 3006 0 3873 867 3873 1936.5 C 3873 3006 3006 3873 1936.5 3873 C 867 3873 0 3006 0 1936.5 C 0 867 867 0 1936.5 0 "/>
</clipPath>
<linearGradient id="linear-pattern-0" gradientUnits="userSpaceOnUse" x1="-0.500008" y1="0" x2="1.500007" y2="0" gradientTransform="matrix(2072.1, -1778.48, 1778.48, 2072.1, 900.452, 2825.74)">
<stop offset="0" stop-color="rgb(95.684814%, 2.745056%, 40.783691%)" stop-opacity="1"/>
<stop offset="0.25" stop-color="rgb(95.684814%, 2.745056%, 40.783691%)" stop-opacity="1"/>
<stop offset="0.253906" stop-color="rgb(94.86084%, 3.482056%, 41.343689%)" stop-opacity="1"/>
<stop offset="0.257812" stop-color="rgb(94.038391%, 4.220581%, 41.905212%)" stop-opacity="1"/>
<stop offset="0.261719" stop-color="rgb(93.214417%, 4.959106%, 42.46521%)" stop-opacity="1"/>
<stop offset="0.265625" stop-color="rgb(92.390442%, 5.697632%, 43.026733%)" stop-opacity="1"/>
<stop offset="0.269531" stop-color="rgb(91.566467%, 6.436157%, 43.588257%)" stop-opacity="1"/>
<stop offset="0.273437" stop-color="rgb(90.742493%, 7.176208%, 44.14978%)" stop-opacity="1"/>
<stop offset="0.277344" stop-color="rgb(89.918518%, 7.914734%, 44.709778%)" stop-opacity="1"/>
<stop offset="0.28125" stop-color="rgb(89.096069%, 8.653259%, 45.271301%)" stop-opacity="1"/>
<stop offset="0.285156" stop-color="rgb(88.272095%, 9.391785%, 45.832825%)" stop-opacity="1"/>
<stop offset="0.289062" stop-color="rgb(87.44812%, 10.13031%, 46.394348%)" stop-opacity="1"/>
<stop offset="0.292969" stop-color="rgb(86.624146%, 10.868835%, 46.954346%)" stop-opacity="1"/>
<stop offset="0.296875" stop-color="rgb(85.800171%, 11.607361%, 47.515869%)" stop-opacity="1"/>
<stop offset="0.300781" stop-color="rgb(84.976196%, 12.345886%, 48.075867%)" stop-opacity="1"/>
<stop offset="0.304688" stop-color="rgb(84.152222%, 13.084412%, 48.63739%)" stop-opacity="1"/>
<stop offset="0.308594" stop-color="rgb(83.328247%, 13.822937%, 49.198914%)" stop-opacity="1"/>
<stop offset="0.3125" stop-color="rgb(82.504272%, 14.561462%, 49.760437%)" stop-opacity="1"/>
<stop offset="0.316406" stop-color="rgb(81.680298%, 15.299988%, 50.320435%)" stop-opacity="1"/>
<stop offset="0.320312" stop-color="rgb(80.857849%, 16.038513%, 50.881958%)" stop-opacity="1"/>
<stop offset="0.324219" stop-color="rgb(80.033875%, 16.777039%, 51.441956%)" stop-opacity="1"/>
<stop offset="0.328125" stop-color="rgb(79.2099%, 17.515564%, 52.003479%)" stop-opacity="1"/>
<stop offset="0.332031" stop-color="rgb(78.385925%, 18.254089%, 52.565002%)" stop-opacity="1"/>
<stop offset="0.335938" stop-color="rgb(77.561951%, 18.992615%, 53.126526%)" stop-opacity="1"/>
<stop offset="0.339844" stop-color="rgb(76.737976%, 19.73114%, 53.686523%)" stop-opacity="1"/>
<stop offset="0.34375" stop-color="rgb(75.914001%, 20.469666%, 54.248047%)" stop-opacity="1"/>
<stop offset="0.347656" stop-color="rgb(75.090027%, 21.208191%, 54.80957%)" stop-opacity="1"/>
<stop offset="0.351562" stop-color="rgb(74.266052%, 21.946716%, 55.371094%)" stop-opacity="1"/>
<stop offset="0.355469" stop-color="rgb(73.442078%, 22.685242%, 55.931091%)" stop-opacity="1"/>
<stop offset="0.359375" stop-color="rgb(72.619629%, 23.425293%, 56.492615%)" stop-opacity="1"/>
<stop offset="0.363281" stop-color="rgb(71.795654%, 24.163818%, 57.052612%)" stop-opacity="1"/>
<stop offset="0.367187" stop-color="rgb(70.97168%, 24.902344%, 57.614136%)" stop-opacity="1"/>
<stop offset="0.371094" stop-color="rgb(70.147705%, 25.640869%, 58.175659%)" stop-opacity="1"/>
<stop offset="0.375" stop-color="rgb(69.32373%, 26.379395%, 58.737183%)" stop-opacity="1"/>
<stop offset="0.378906" stop-color="rgb(68.499756%, 27.11792%, 59.29718%)" stop-opacity="1"/>
<stop offset="0.382812" stop-color="rgb(67.675781%, 27.856445%, 59.858704%)" stop-opacity="1"/>
<stop offset="0.386719" stop-color="rgb(66.851807%, 28.594971%, 60.418701%)" stop-opacity="1"/>
<stop offset="0.390625" stop-color="rgb(66.027832%, 29.333496%, 60.980225%)" stop-opacity="1"/>
<stop offset="0.394531" stop-color="rgb(65.203857%, 30.072021%, 61.541748%)" stop-opacity="1"/>
<stop offset="0.398438" stop-color="rgb(64.381409%, 30.810547%, 62.103271%)" stop-opacity="1"/>
<stop offset="0.402344" stop-color="rgb(63.557434%, 31.549072%, 62.663269%)" stop-opacity="1"/>
<stop offset="0.40625" stop-color="rgb(62.733459%, 32.287598%, 63.224792%)" stop-opacity="1"/>
<stop offset="0.410156" stop-color="rgb(61.909485%, 33.026123%, 63.786316%)" stop-opacity="1"/>
<stop offset="0.414062" stop-color="rgb(61.08551%, 33.764648%, 64.347839%)" stop-opacity="1"/>
<stop offset="0.417969" stop-color="rgb(60.261536%, 34.503174%, 64.907837%)" stop-opacity="1"/>
<stop offset="0.421875" stop-color="rgb(59.437561%, 35.241699%, 65.46936%)" stop-opacity="1"/>
<stop offset="0.425781" stop-color="rgb(58.613586%, 35.980225%, 66.029358%)" stop-opacity="1"/>
<stop offset="0.429688" stop-color="rgb(57.791138%, 36.71875%, 66.590881%)" stop-opacity="1"/>
<stop offset="0.433594" stop-color="rgb(56.967163%, 37.457275%, 67.152405%)" stop-opacity="1"/>
<stop offset="0.4375" stop-color="rgb(56.143188%, 38.195801%, 67.713928%)" stop-opacity="1"/>
<stop offset="0.441406" stop-color="rgb(55.319214%, 38.934326%, 68.273926%)" stop-opacity="1"/>
<stop offset="0.445312" stop-color="rgb(54.495239%, 39.674377%, 68.835449%)" stop-opacity="1"/>
<stop offset="0.449219" stop-color="rgb(53.671265%, 40.412903%, 69.395447%)" stop-opacity="1"/>
<stop offset="0.453125" stop-color="rgb(52.84729%, 41.151428%, 69.95697%)" stop-opacity="1"/>
<stop offset="0.457031" stop-color="rgb(52.023315%, 41.889954%, 70.518494%)" stop-opacity="1"/>
<stop offset="0.460938" stop-color="rgb(51.199341%, 42.628479%, 71.080017%)" stop-opacity="1"/>
<stop offset="0.464844" stop-color="rgb(50.505066%, 43.251038%, 71.556091%)" stop-opacity="1"/>
<stop offset="0.46875" stop-color="rgb(49.812317%, 43.873596%, 72.033691%)" stop-opacity="1"/>
<stop offset="0.472656" stop-color="rgb(49.320984%, 44.314575%, 72.37854%)" stop-opacity="1"/>
<stop offset="0.476562" stop-color="rgb(48.831177%, 44.75708%, 72.723389%)" stop-opacity="1"/>
<stop offset="0.480469" stop-color="rgb(48.34137%, 45.198059%, 73.068237%)" stop-opacity="1"/>
<stop offset="0.484375" stop-color="rgb(47.851562%, 45.640564%, 73.413086%)" stop-opacity="1"/>
<stop offset="0.488281" stop-color="rgb(47.360229%, 46.081543%, 73.757935%)" stop-opacity="1"/>
<stop offset="0.492188" stop-color="rgb(46.870422%, 46.524048%, 74.102783%)" stop-opacity="1"/>
<stop offset="0.496094" stop-color="rgb(46.379089%, 46.965027%, 74.447632%)" stop-opacity="1"/>
<stop offset="0.5" stop-color="rgb(45.889282%, 47.407532%, 74.79248%)" stop-opacity="1"/>
<stop offset="0.503906" stop-color="rgb(45.399475%, 47.850037%, 75.137329%)" stop-opacity="1"/>
<stop offset="0.507812" stop-color="rgb(44.909668%, 48.292542%, 75.482178%)" stop-opacity="1"/>
<stop offset="0.511719" stop-color="rgb(44.418335%, 48.733521%, 75.827026%)" stop-opacity="1"/>
<stop offset="0.515625" stop-color="rgb(43.928528%, 49.176025%, 76.171875%)" stop-opacity="1"/>
<stop offset="0.519531" stop-color="rgb(43.437195%, 49.617004%, 76.516724%)" stop-opacity="1"/>
<stop offset="0.523438" stop-color="rgb(42.947388%, 50.059509%, 76.861572%)" stop-opacity="1"/>
<stop offset="0.527344" stop-color="rgb(42.457581%, 50.500488%, 77.206421%)" stop-opacity="1"/>
<stop offset="0.53125" stop-color="rgb(41.967773%, 50.942993%, 77.55127%)" stop-opacity="1"/>
<stop offset="0.535156" stop-color="rgb(41.47644%, 51.383972%, 77.896118%)" stop-opacity="1"/>
<stop offset="0.539062" stop-color="rgb(40.986633%, 51.826477%, 78.240967%)" stop-opacity="1"/>
<stop offset="0.542969" stop-color="rgb(40.4953%, 52.267456%, 78.585815%)" stop-opacity="1"/>
<stop offset="0.546875" stop-color="rgb(40.005493%, 52.709961%, 78.930664%)" stop-opacity="1"/>
<stop offset="0.550781" stop-color="rgb(39.515686%, 53.15094%, 79.275513%)" stop-opacity="1"/>
<stop offset="0.554688" stop-color="rgb(39.025879%, 53.593445%, 79.620361%)" stop-opacity="1"/>
<stop offset="0.558594" stop-color="rgb(38.534546%, 54.034424%, 79.96521%)" stop-opacity="1"/>
<stop offset="0.5625" stop-color="rgb(38.044739%, 54.476929%, 80.310059%)" stop-opacity="1"/>
<stop offset="0.566406" stop-color="rgb(37.553406%, 54.919434%, 80.654907%)" stop-opacity="1"/>
<stop offset="0.570312" stop-color="rgb(37.063599%, 55.361938%, 80.999756%)" stop-opacity="1"/>
<stop offset="0.574219" stop-color="rgb(36.573792%, 55.802917%, 81.344604%)" stop-opacity="1"/>
<stop offset="0.578125" stop-color="rgb(36.083984%, 56.245422%, 81.689453%)" stop-opacity="1"/>
<stop offset="0.582031" stop-color="rgb(35.592651%, 56.686401%, 82.034302%)" stop-opacity="1"/>
<stop offset="0.585938" stop-color="rgb(35.102844%, 57.128906%, 82.37915%)" stop-opacity="1"/>
<stop offset="0.589844" stop-color="rgb(34.611511%, 57.569885%, 82.723999%)" stop-opacity="1"/>
<stop offset="0.59375" stop-color="rgb(34.121704%, 58.01239%, 83.068848%)" stop-opacity="1"/>
<stop offset="0.597656" stop-color="rgb(33.631897%, 58.453369%, 83.413696%)" stop-opacity="1"/>
<stop offset="0.601562" stop-color="rgb(33.14209%, 58.895874%, 83.758545%)" stop-opacity="1"/>
<stop offset="0.605469" stop-color="rgb(32.650757%, 59.336853%, 84.103394%)" stop-opacity="1"/>
<stop offset="0.609375" stop-color="rgb(32.16095%, 59.779358%, 84.448242%)" stop-opacity="1"/>
<stop offset="0.613281" stop-color="rgb(31.669617%, 60.220337%, 84.793091%)" stop-opacity="1"/>
<stop offset="0.617188" stop-color="rgb(31.17981%, 60.662842%, 85.137939%)" stop-opacity="1"/>
<stop offset="0.621094" stop-color="rgb(30.688477%, 61.103821%, 85.482788%)" stop-opacity="1"/>
<stop offset="0.625" stop-color="rgb(30.198669%, 61.546326%, 85.827637%)" stop-opacity="1"/>
<stop offset="0.628906" stop-color="rgb(29.708862%, 61.988831%, 86.172485%)" stop-opacity="1"/>
<stop offset="0.632812" stop-color="rgb(29.219055%, 62.431335%, 86.517334%)" stop-opacity="1"/>
<stop offset="0.636719" stop-color="rgb(28.727722%, 62.872314%, 86.862183%)" stop-opacity="1"/>
<stop offset="0.640625" stop-color="rgb(28.237915%, 63.314819%, 87.207031%)" stop-opacity="1"/>
<stop offset="0.644531" stop-color="rgb(27.746582%, 63.755798%, 87.55188%)" stop-opacity="1"/>
<stop offset="0.648437" stop-color="rgb(27.256775%, 64.198303%, 87.896729%)" stop-opacity="1"/>
<stop offset="0.652344" stop-color="rgb(26.766968%, 64.639282%, 88.241577%)" stop-opacity="1"/>
<stop offset="0.65625" stop-color="rgb(26.277161%, 65.081787%, 88.586426%)" stop-opacity="1"/>
<stop offset="0.660156" stop-color="rgb(25.785828%, 65.522766%, 88.931274%)" stop-opacity="1"/>
<stop offset="0.664062" stop-color="rgb(25.296021%, 65.965271%, 89.276123%)" stop-opacity="1"/>
<stop offset="0.667969" stop-color="rgb(24.804688%, 66.40625%, 89.620972%)" stop-opacity="1"/>
<stop offset="0.671875" stop-color="rgb(24.31488%, 66.848755%, 89.96582%)" stop-opacity="1"/>
<stop offset="0.675781" stop-color="rgb(23.825073%, 67.289734%, 90.310669%)" stop-opacity="1"/>
<stop offset="0.679688" stop-color="rgb(23.335266%, 67.732239%, 90.655518%)" stop-opacity="1"/>
<stop offset="0.683594" stop-color="rgb(22.843933%, 68.173218%, 91.000366%)" stop-opacity="1"/>
<stop offset="0.6875" stop-color="rgb(22.354126%, 68.615723%, 91.345215%)" stop-opacity="1"/>
<stop offset="0.691406" stop-color="rgb(21.862793%, 69.058228%, 91.690063%)" stop-opacity="1"/>
<stop offset="0.695312" stop-color="rgb(21.372986%, 69.500732%, 92.034912%)" stop-opacity="1"/>
<stop offset="0.699219" stop-color="rgb(20.883179%, 69.941711%, 92.379761%)" stop-opacity="1"/>
<stop offset="0.703125" stop-color="rgb(20.393372%, 70.384216%, 92.724609%)" stop-opacity="1"/>
<stop offset="0.707031" stop-color="rgb(19.902039%, 70.825195%, 93.069458%)" stop-opacity="1"/>
<stop offset="0.710938" stop-color="rgb(19.412231%, 71.2677%, 93.414307%)" stop-opacity="1"/>
<stop offset="0.714844" stop-color="rgb(18.920898%, 71.708679%, 93.759155%)" stop-opacity="1"/>
<stop offset="0.71875" stop-color="rgb(18.431091%, 72.151184%, 94.104004%)" stop-opacity="1"/>
<stop offset="0.722656" stop-color="rgb(17.941284%, 72.592163%, 94.448853%)" stop-opacity="1"/>
<stop offset="0.726562" stop-color="rgb(17.451477%, 73.034668%, 94.793701%)" stop-opacity="1"/>
<stop offset="0.730469" stop-color="rgb(16.960144%, 73.475647%, 95.13855%)" stop-opacity="1"/>
<stop offset="0.734375" stop-color="rgb(16.470337%, 73.918152%, 95.483398%)" stop-opacity="1"/>
<stop offset="0.738281" stop-color="rgb(15.979004%, 74.359131%, 95.828247%)" stop-opacity="1"/>
<stop offset="0.742187" stop-color="rgb(15.489197%, 74.801636%, 96.173096%)" stop-opacity="1"/>
<stop offset="0.746094" stop-color="rgb(14.99939%, 75.242615%, 96.516418%)" stop-opacity="1"/>
<stop offset="0.75" stop-color="rgb(14.509583%, 75.68512%, 96.861267%)" stop-opacity="1"/>
<stop offset="1" stop-color="rgb(14.509583%, 75.68512%, 96.861267%)" stop-opacity="1"/>
</linearGradient>
</defs>
<g clip-path="url(#clip-0)">
<path fill-rule="nonzero" fill="url(#linear-pattern-0)" d="M -1914.109375 1642.878906 L 1642.878906 5787.109375 L 5787.109375 2230.121094 L 2230.121094 -1914.109375 Z M -1914.109375 1642.878906 "/>
</g>
<path fill-rule="evenodd" fill="rgb(100%, 100%, 99.609375%)" fill-opacity="1" d="M 1044.5 1368.898438 L 1044.5 1247.398438 C 1044.5 1138.199219 1133.300781 1049.398438 1242.5 1049.398438 L 1296.199219 1049.398438 L 1296.199219 1152.101562 C 1296.199219 1220.898438 1352.101562 1276.800781 1420.898438 1276.800781 C 1489.699219 1276.800781 1545.601562 1220.898438 1545.601562 1152.101562 L 1545.601562 1049.398438 L 1740.800781 1049.398438 L 1740.800781 1152.101562 C 1740.800781 1220.898438 1796.699219 1276.800781 1865.5 1276.800781 C 1934.300781 1276.800781 1990.199219 1220.898438 1990.199219 1152.101562 L 1990.199219 1049.398438 L 2121.898438 1049.398438 L 2121.898438 1152.101562 C 2121.898438 1220.898438 2177.800781 1276.800781 2246.601562 1276.800781 C 2315.398438 1276.800781 2371.300781 1220.898438 2371.300781 1152.101562 L 2371.300781 1049.398438 L 2425 1049.398438 C 2534.199219 1049.398438 2623 1138.199219 2623 1247.398438 L 2623 1368.898438 Z M 2340.101562 1589.601562 L 1327.398438 1589.601562 C 1315.699219 1589.601562 1306.199219 1580.101562 1306.199219 1568.398438 C 1306.199219 1556.699219 1315.699219 1547.199219 1327.398438 1547.199219 L 2340.101562 1547.199219 C 2351.800781 1547.199219 2361.300781 1556.699219 2361.300781 1568.398438 C 2361.300781 1580.101562 2351.800781 1589.601562 2340.101562 1589.601562 Z M 2340.101562 1800.300781 L 1327.398438 1800.300781 C 1315.699219 1800.300781 1306.199219 1790.800781 1306.199219 1779.101562 C 1306.199219 1767.398438 1315.699219 1757.898438 1327.398438 1757.898438 L 2340.101562 1757.898438 C 2351.800781 1757.898438 2361.300781 1767.398438 2361.300781 1779.101562 C 2361.199219 1790.800781 2351.800781 1800.300781 2340.101562 1800.300781 Z M 2340.101562 2011 L 1327.398438 2011 C 1315.699219 2011 1306.199219 2001.5 1306.199219 1989.800781 C 1306.199219 1978.101562 1315.699219 1968.601562 1327.398438 1968.601562 L 2340.101562 1968.601562 C 2351.800781 1968.601562 2361.300781 1978.101562 2361.300781 1989.800781 C 2361.300781 2001.5 2351.800781 2011 2340.101562 2011 Z M 2340.101562 2221.699219 L 1327.398438 2221.699219 C 1315.699219 2221.699219 1306.199219 2212.199219 1306.199219 2200.5 C 1306.199219 2188.800781 1315.699219 2179.300781 1327.398438 2179.300781 L 2340.101562 2179.300781 C 2351.800781 2179.300781 2361.300781 2188.800781 2361.300781 2200.5 C 2361.300781 2212.199219 2351.800781 2221.699219 2340.101562 2221.699219 Z M 2340.101562 2432.398438 L 1636.601562 2432.398438 C 1624.898438 2432.398438 1615.398438 2422.898438 1615.398438 2411.199219 C 1615.398438 2399.5 1624.898438 2390 1636.601562 2390 L 2340.101562 2390 C 2351.800781 2390 2361.300781 2399.5 2361.300781 2411.199219 C 2361.300781 2422.898438 2351.800781 2432.398438 2340.101562 2432.398438 Z M 2340.101562 2643.101562 L 1636.601562 2643.101562 C 1624.898438 2643.101562 1615.398438 2633.601562 1615.398438 2621.898438 C 1615.398438 2610.199219 1624.898438 2600.699219 1636.601562 2600.699219 L 2340.101562 2600.699219 C 2351.800781 2600.699219 2361.300781 2610.199219 2361.300781 2621.898438 C 2361.300781 2633.601562 2351.800781 2643.101562 2340.101562 2643.101562 Z M 1116.800781 2400.101562 L 1347.601562 2400.101562 C 1384.699219 2400.101562 1414.898438 2430.300781 1414.898438 2467.398438 L 1414.898438 2698.199219 Z M 1415 2770.5 L 1065.800781 2770.5 C 1054.101562 2770.5 1044.601562 2761 1044.601562 2749.300781 L 1044.601562 2400.101562 L 1057 2400.101562 L 1415 2758.101562 Z M 2601.699219 2770.5 L 1457.300781 2770.5 L 1457.300781 2749.898438 C 1457.300781 2749.5 1457.300781 2749.199219 1457.300781 2748.800781 L 1457.300781 2467.398438 C 1457.300781 2407 1408.101562 2357.800781 1347.699219 2357.800781 L 1044.601562 2357.800781 L 1044.601562 1411.199219 L 2623 1411.199219 L 2623 2749.300781 C 2622.898438 2761.101562 2613.398438 2770.5 2601.699219 2770.5 "/>
<path fill-rule="evenodd" fill="rgb(100%, 100%, 99.609375%)" fill-opacity="1" d="M 1420.898438 1234.5 C 1375.5 1234.5 1338.601562 1197.601562 1338.601562 1152.199219 L 1338.601562 1036.699219 C 1338.601562 991.300781 1375.5 954.398438 1420.898438 954.398438 C 1466.300781 954.398438 1503.199219 991.300781 1503.199219 1036.699219 L 1503.199219 1152.199219 C 1503.199219 1197.601562 1466.300781 1234.5 1420.898438 1234.5 "/>
<path fill-rule="evenodd" fill="rgb(100%, 100%, 99.609375%)" fill-opacity="1" d="M 1865.5 1234.5 C 1820.101562 1234.5 1783.199219 1197.601562 1783.199219 1152.199219 L 1783.199219 1036.699219 C 1783.199219 991.300781 1820.101562 954.398438 1865.5 954.398438 C 1910.898438 954.398438 1947.800781 991.300781 1947.800781 1036.699219 L 1947.800781 1152.199219 C 1947.800781 1197.601562 1910.898438 1234.5 1865.5 1234.5 "/>
<path fill-rule="evenodd" fill="rgb(100%, 100%, 99.609375%)" fill-opacity="1" d="M 2246.601562 1234.5 C 2201.199219 1234.5 2164.300781 1197.601562 2164.300781 1152.199219 L 2164.300781 1036.699219 C 2164.300781 991.300781 2201.199219 954.398438 2246.601562 954.398438 C 2292 954.398438 2328.898438 991.300781 2328.898438 1036.699219 L 2328.898438 1152.199219 C 2328.898438 1197.601562 2291.898438 1234.5 2246.601562 1234.5 "/>
<path fill-rule="evenodd" fill="rgb(100%, 100%, 99.609375%)" fill-opacity="1" d="M 2815.199219 2380 L 2815.199219 1559.5 C 2815.199219 1547.800781 2824.699219 1538.300781 2836.398438 1538.300781 C 2848.101562 1538.300781 2857.601562 1547.800781 2857.601562 1559.5 L 2857.601562 2380 Z M 2696.101562 2562.898438 L 2696.101562 1355.5 C 2717.300781 1355.5 2709.800781 1355.5 2717.300781 1355.5 L 2955.398438 1355.5 C 2962.800781 1355.5 2955.398438 1355.5 2976.601562 1355.800781 L 2976.601562 2562.699219 C 2969.898438 2560.300781 2962.800781 2562.398438 2955.398438 2562.398438 L 2717.300781 2562.398438 C 2709.898438 2562.398438 2717.300781 2562.398438 2696.101562 2562.898438 "/>
<path fill-rule="evenodd" fill="rgb(100%, 100%, 99.609375%)" fill-opacity="1" d="M 2836.398438 2800.199219 C 2829.898438 2800.199219 2823.699219 2797.199219 2819.699219 2792 L 2700.601562 2638.898438 C 2695.601562 2632.5 2694.699219 2623.898438 2698.300781 2616.601562 C 2701.898438 2609.300781 2709.199219 2604.699219 2717.300781 2604.699219 L 2955.398438 2604.699219 C 2963.5 2604.699219 2970.898438 2609.300781 2974.398438 2616.601562 C 2978 2623.898438 2977.101562 2632.5 2972.101562 2638.898438 L 2853.101562 2792 C 2849.101562 2797.199219 2842.898438 2800.199219 2836.398438 2800.199219 "/>
<path fill-rule="evenodd" fill="rgb(100%, 100%, 99.609375%)" fill-opacity="1" d="M 2696.101562 1137.398438 C 2697.5 1061.300781 2759.800781 1002.601562 2836.300781 1002.601562 C 2912.800781 1002.601562 2975.101562 1060.800781 2976.5 1137 C 2955.398438 1136.699219 2962.800781 1136.699219 2955.398438 1136.699219 L 2717.300781 1136.699219 C 2709.898438 1136.699219 2717.800781 1136.699219 2696.101562 1137.398438 "/>
<path fill-rule="evenodd" fill="rgb(100%, 100%, 99.609375%)" fill-opacity="1" d="M 2955.398438 1313.199219 L 2717.300781 1313.199219 C 2705.601562 1313.199219 2696.101562 1303.699219 2696.101562 1292 L 2696.101562 1200.199219 C 2696.101562 1188.5 2705.601562 1179 2717.300781 1179 L 2955.398438 1179 C 2967.101562 1179 2976.601562 1188.5 2976.601562 1200.199219 L 2976.601562 1292 C 2976.601562 1303.699219 2967.101562 1313.199219 2955.398438 1313.199219 "/>
<path fill-rule="evenodd" fill="rgb(100%, 100%, 99.609375%)" fill-opacity="1" d="M 938.699219 2378.199219 C 915.300781 2378.199219 896.398438 2359.199219 896.398438 2335.898438 L 896.398438 1418.699219 C 896.398438 1395.300781 915.398438 1376.398438 938.699219 1376.398438 C 962.101562 1376.398438 981 1395.398438 981 1418.699219 L 981 2335.898438 C 981.101562 2359.199219 962.101562 2378.199219 938.699219 2378.199219 "/>
<path fill-rule="evenodd" fill="rgb(100%, 100%, 99.609375%)" fill-opacity="1" d="M 2469.199219 2918.699219 L 1552 2918.699219 C 1528.601562 2918.699219 1509.699219 2899.699219 1509.699219 2876.398438 C 1509.699219 2853 1528.699219 2834.101562 1552 2834.101562 L 2469.199219 2834.101562 C 2492.601562 2834.101562 2511.5 2853.101562 2511.5 2876.398438 C 2511.5 2899.699219 2492.601562 2918.699219 2469.199219 2918.699219 "/>
</svg>
